<svg id="Layer_1" data-name="Layer 1" xmlns="http://www.w3.org/2000/svg" viewBox="0 0 895.29 969.82"><defs><style>.cls-1{fill:#fff;}.cls-2,.cls-3{fill:none;stroke:#fff;stroke-miterlimit:10;}.cls-3{stroke-width:80px;}</style></defs><title>DarthMaulCompetitive</title><circle class="cls-1" cx="475.78" cy="351.51" r="69.53"/><path class="cls-1" d="M531.65,464.17c.6,3.39,1.07,6.71,1.44,10,.18,1.64.43,3.3.56,4.92l.42,4.85c.65,6.51.9,12.83,1.16,19.15.41,12.59.27,24.92-.29,37s-1.5,24.06-2.87,35.79l-.49,4.41-.57,4.37c-.39,2.91-.74,5.84-1.17,8.73-.9,5.76-1.72,11.56-2.78,17.25a628.55,628.55,0,0,1-15.48,66.87c-6.28,21.75-13.62,43-21.84,63.79l-2.06,5.22-11.28,14.8a743.14,743.14,0,0,1-61.3,70.62,694.9,694.9,0,0,1-70.49,62.48c-12.6,9.66-25.59,19-39.1,27.83s-27.57,17.22-42.18,25.1-29.87,15.18-45.82,21.87c-8,3.3-16.22,6.46-24.7,9.36l-3.19,1.08-3.25,1-6.51,2-6.7,1.87c-1.11.32-2.29.58-3.43.87s-2.3.57-3.48.82l-7.49-6.63,14.86-18.07,15-17.93,15-17.93,7.5-9,7.57-8.91q30.22-35.69,60.86-71c20.47-23.51,40.88-47.07,61.53-70.41C351.42,754.73,361.68,743,372,731.36l31.1-34.91-1.49,2.24c9.72-20.08,19.72-40,29.59-60l7.42-15,7.51-15,15-29.91,15.16-29.84L483.93,534l7.7-14.86c10.31-19.8,20.46-39.67,31-59.35Z" transform="translate(-71.35 -25.45)"/><path class="cls-1" d="M439.14,687.69a202.46,202.46,0,0,1,34.32,2.86,261.32,261.32,0,0,1,56.78,16A251.53,251.53,0,0,1,554.66,718a255.69,255.69,0,0,1,42.54,28.31A268.9,268.9,0,0,1,632.36,781l11,13,5,13.61a200.56,200.56,0,0,1,12.3,61.4c.13,3.63.23,7.26.12,11,0,1.85,0,3.69-.12,5.56l-.32,5.64a219.59,219.59,0,0,1-8.55,47.38,236.17,236.17,0,0,1-9.18,25.58c-1.92,4.41-4,8.87-6.31,13.45s-4.84,9.21-8.07,14.13l-9.33,3.59c-5.94-12.41-11.48-25-17-37.53s-10.9-25.2-16.13-37.88-10.4-25.39-15.57-38.1c-2.61-6.34-5-12.76-7.56-19.13L555,843.47l1.77,2.95L524.73,809,508.87,790.2l-7.93-9.43-7.84-9.5c-5.22-6.34-10.47-12.65-15.65-19L462,733.1c-10.22-12.87-20.48-25.71-30.37-38.86Z" transform="translate(-71.35 -25.45)"/><path class="cls-2" d="M402.63,627.47" transform="translate(-71.35 -25.45)"/><line class="cls-3" x1="423.02" y1="455.88" x2="72.76" y2="260.01"/><line class="cls-3" x1="473.38" y1="484.04" x2="823.65" y2="679.91"/><path class="cls-1" d="M855.92,619.61a375.94,375.94,0,0,0,25.37-50.78l5-13.34.63-1.67.54-1.7,1.07-3.4,2.16-6.81,1.09-3.41.54-1.71c.17-.57.3-1.15.46-1.73l1.79-6.93c1.19-4.62,2.51-9.23,3.35-13.94l1.44-7,.73-3.52c.25-1.17.49-2.35.64-3.54l2.16-14.24.27-1.78c.08-.6.12-1.19.18-1.79l.35-3.59.72-7.19.36-3.6.18-1.8.09-1.8.35-7.23a347.22,347.22,0,0,0-1.82-58.1,392.47,392.47,0,0,0-11-57.61,421.45,421.45,0,0,0-19.84-55.68A408.29,408.29,0,0,0,809,185.12l-4.94-5.67c-1.66-1.88-3.26-3.83-5-5.6L788.62,163c-1.7-1.86-3.59-3.52-5.4-5.27l-5.48-5.2-5.49-5.2-5.73-4.93-5.73-4.94c-1.91-1.65-3.8-3.33-5.82-4.85L743,123.23c-2-1.61-4.06-3-6.12-4.49l-6.2-4.39-6.21-4.4c-2.11-1.41-4.27-2.74-6.4-4.11-4.29-2.71-8.54-5.51-12.87-8.16s-8.74-5.21-13.22-7.62c-8.87-5-18-9.52-27.21-13.92a433.08,433.08,0,0,0-57.27-21.9c-9.8-3-19.75-5.56-29.77-7.88l-7.54-1.64c-2.51-.56-5-1-7.57-1.48-5-1-10.14-1.76-15.23-2.61a424.68,424.68,0,0,0-61.77-4.7A415,415,0,0,0,362.4,54.16C440.48,23.51,528.74,17.24,612.25,36.1a454.16,454.16,0,0,1,61.61,18.44c10,3.89,20,7.93,29.76,12.52,4.93,2.19,9.72,4.65,14.58,7s9.51,5.08,14.28,7.62c2.37,1.29,4.77,2.54,7.13,3.87l7,4.18,7,4.18c2.31,1.41,4.67,2.75,6.89,4.3l13.52,9c2.29,1.47,4.44,3.11,6.63,4.72l6.55,4.84,6.55,4.85,6.33,5.14,6.33,5.16c2.09,1.74,4.26,3.4,6.25,5.26l12.17,10.93c2.07,1.79,4,3.75,5.91,5.66l5.83,5.76A450.48,450.48,0,0,1,914.9,265a470.48,470.48,0,0,1,26.93,60.81,446.46,446.46,0,0,1,17.4,64.66,405.78,405.78,0,0,1,7.14,67.08l.22,8.48,0,2.12,0,2.12-.1,4.24-.21,8.49-.11,4.25c0,.71,0,1.42-.06,2.13l-.16,2.12-1.29,17c-.08,1.42-.26,2.83-.44,4.24l-.54,4.23-1.08,8.47c-.61,5.67-1.73,11.25-2.73,16.87l-1.53,8.42c-.13.7-.24,1.41-.4,2.1l-.49,2.08-1,4.17-2,8.34-1,4.17-.5,2.09-.6,2.06-4.82,16.48A448,448,0,0,1,921.53,656Z" transform="translate(-71.35 -25.45)"/><path class="cls-1" d="M770.65,572.31A297.54,297.54,0,0,0,791.4,531.7l4.13-10.7c.37-.89.67-1.79,1-2.71l.88-2.73,1.78-5.47c1.29-3.62,2.19-7.35,3.2-11.06l1.5-5.58c.27-.93.48-1.87.66-2.81l.6-2.83,1.2-5.66c.38-1.89.88-3.77,1.12-5.69L809.26,465c.87-7.7,1.86-15.43,2.12-23.22l.33-5.85c.09-2,0-3.9.06-5.86l0-5.87c0-2,0-3.92-.09-5.88l-.53-11.77c-.33-3.92-.74-7.83-1.09-11.77a325.78,325.78,0,0,0-8.73-46.74,343,343,0,0,0-16-45.27l-5-11c-1.81-3.6-3.69-7.17-5.53-10.77s-3.91-7.07-5.91-10.6l-3-5.27c-1-1.77-2.16-3.43-3.24-5.15a323.12,323.12,0,0,0-28.93-39.35l-4-4.65-2-2.33c-.67-.77-1.4-1.49-2.1-2.24l-8.46-8.94c-.69-.76-1.43-1.47-2.18-2.18l-2.22-2.13-4.44-4.28c-1.49-1.41-2.94-2.89-4.47-4.26l-4.65-4.06-4.65-4.08-2.33-2c-.79-.67-1.61-1.29-2.41-1.94L680,169.8l-1.22-1-1.26-.91-2.52-1.81-5-3.63-5-3.64-5.22-3.39-5.22-3.4-2.61-1.7-1.31-.85-1.34-.79-10.8-6.27c-1.81-1-3.58-2.15-5.43-3.1l-5.56-2.85c-3.72-1.89-7.41-3.85-11.17-5.68l-11.44-5.12c-1.92-.84-3.81-1.75-5.75-2.54l-5.86-2.26c-3.91-1.49-7.81-3.06-11.75-4.49l-12-3.91-3-1c-1-.33-2-.67-3-.92l-6.09-1.64-6.1-1.65-3.05-.82-1.53-.41-1.54-.33C537,104,528.72,102,520.34,100.86l-6.27-1-3.14-.5L507.78,99l-12.65-1.36c-2.11-.27-4.23-.36-6.35-.48l-6.36-.35-6.37-.35c-1.06-.08-2.13-.09-3.19-.08h-3.19l-12.78,0L444.12,97c-2.13.13-4.27.16-6.4.36l-6.38.65-6.39.65c-2.13.23-4.27.39-6.38.76l-12.71,2c-1.06.17-2.13.31-3.18.51l-3.15.66-6.31,1.33-6.32,1.33-1.58.34-1.56.42-3.12.83-12.5,3.33,12.16-4.45,3-1.12,1.52-.56,1.55-.48,6.2-1.9,6.21-1.91,3.11-1c1-.29,2.1-.53,3.15-.8l12.63-3.16c2.1-.58,4.24-.93,6.37-1.36l6.4-1.25,6.41-1.25c2.14-.4,4.3-.63,6.46-1l13-1.81,13-1.15,3.27-.29c1.09-.11,2.18-.19,3.27-.21l6.56-.23,6.57-.23c2.19-.08,4.38-.19,6.57-.1l13.16.22,3.3.06,3.28.22,6.58.45c8.8.41,17.51,1.69,26.28,2.72l1.64.2,1.63.28,3.26.57,6.52,1.14,6.53,1.14c1.1.17,2.17.43,3.24.68l3.23.74,13,3c4.28,1.12,8.53,2.4,12.8,3.6l6.41,1.83c2.12.65,4.2,1.42,6.31,2.12l12.62,4.33c4.15,1.58,8.26,3.3,12.4,4.95l6.2,2.5c2.07.84,4.05,1.85,6.08,2.77l12.14,5.66,1.52.71,1.48.78,3,1.56,5.93,3.13,5.94,3.14,5.79,3.41,5.79,3.42,2.9,1.71,1.45.86,1.41.92,11.27,7.4c.94.62,1.89,1.22,2.81,1.87l2.73,2,5.47,4,5.47,4c1.81,1.34,3.53,2.8,5.31,4.19l5.29,4.23,2.64,2.12c.89.7,1.77,1.41,2.6,2.17l10.18,9c.84.76,1.71,1.49,2.53,2.27l2.44,2.36L761,195a362.91,362.91,0,0,1,36.18,40.86c1.38,1.82,2.85,3.58,4.16,5.45l4,5.61c2.61,3.76,5.36,7.44,7.75,11.35s5,7.73,7.37,11.63l6.86,12a392,392,0,0,1,23.14,50.35A379.72,379.72,0,0,1,865.65,386c.86,4.6,1.76,9.21,2.56,13.83l1.92,14c.36,2.33.55,4.67.75,7l.61,7c.18,2.35.45,4.7.56,7.06l.26,7.08c.51,9.45.23,18.93,0,28.42l-.94,14.24c-.11,2.38-.47,4.74-.73,7.11l-.84,7.1-.43,3.56c-.13,1.19-.28,2.37-.5,3.55L867.66,513c-.82,4.71-1.56,9.45-2.71,14.1l-1.59,7-.8,3.51c-.26,1.17-.53,2.34-.88,3.49L857.74,555a369.71,369.71,0,0,1-21.48,53.67Z" transform="translate(-71.35 -25.45)"/><path class="cls-1" d="M686.46,524.39a200.57,200.57,0,0,0,15.46-29.25l3.11-7.75,2.67-7.93c.22-.66.47-1.32.67-2l.55-2,1.12-4.05c.37-1.36.78-2.7,1.11-4.07l.9-4.13c5.07-22,5.85-45.31,3.25-68.56a240.82,240.82,0,0,0-7-34.67,231.7,231.7,0,0,0-12.37-33.71L694,322.14l-.94-2.06-1-2L687.88,310c-3-5.25-6-10.6-9.35-15.68l-2.46-3.87c-.81-1.3-1.74-2.51-2.61-3.77-1.78-2.49-3.49-5-5.33-7.5l-5.65-7.29c-.48-.6-.93-1.23-1.43-1.82l-1.5-1.76-3-3.52-3-3.53c-1-1.15-2.1-2.26-3.15-3.4-2.13-2.24-4.18-4.57-6.38-6.76l-6.66-6.51c-.56-.54-1.1-1.1-1.68-1.62L634,241.41l-3.49-3.11L627,235.18c-1.17-1-2.41-2-3.61-3-2.43-2-4.84-4-7.3-5.91-5.05-3.69-10-7.57-15.31-11l-3.92-2.63-2-1.31-2-1.22-8.11-4.89c-2.67-1.71-5.52-3.07-8.29-4.6l-4.19-2.24c-1.4-.74-2.78-1.53-4.23-2.17-5.75-2.65-11.42-5.56-17.36-7.84l-4.42-1.81c-1.48-.58-2.93-1.27-4.45-1.76l-9-3.18c-3-1.13-6.08-2-9.14-2.89L519,177.44c-1.54-.45-3.07-.95-4.63-1.29-6.23-1.48-12.46-3.14-18.8-4.19l-4.75-.9-2.38-.45-2.39-.32L476.49,169c-1.6-.25-3.21-.36-4.82-.5l-4.83-.41-4.84-.41c-1.62-.17-3.23-.14-4.85-.22l-9.74-.32-9.75.16c-1.63,0-3.26,0-4.89.12l-4.88.34-4.89.34c-1.63.13-3.27.18-4.89.42l-9.75,1.2-2.44.31-2.42.43-4.85.86-4.86.86-1.22.22-1.2.28-2.4.56-9.63,2.24,9.32-3.37,2.34-.84,1.17-.42,1.19-.36L398.1,169l4.76-1.44,2.39-.72,2.41-.6,9.69-2.38c1.61-.44,3.26-.69,4.89-1l4.91-.94,4.92-.94c1.65-.28,3.3-.47,5-.71,3.31-.45,6.62-.93,10-1.35l10-.86c1.67-.12,3.35-.34,5-.37l5-.17,5-.17c1.68-.06,3.37-.14,5-.08l10.11.17,2.53,0,2.52.17,5.06.34c6.77.32,13.47,1.26,20.22,2,1.69.17,3.36.49,5,.77l5,.86c3.35.58,6.73,1.09,10,1.9l10,2.23c1.68.34,3.3.87,4.95,1.3l4.94,1.37c6.64,1.69,13.06,4,19.59,6.18,1.64.51,3.22,1.18,4.82,1.79l4.8,1.87c3.18,1.28,6.45,2.42,9.55,3.9l9.42,4.25,2.36,1.07,2.3,1.17,4.61,2.35c6.22,3,12.14,6.59,18.19,10,3,1.81,5.87,3.69,8.81,5.54,1.46.94,3,1.83,4.39,2.82l4.28,3,4.29,3,2.14,1.5c.71.51,1.39,1.05,2.08,1.58l8.31,6.39c2.75,2.16,5.37,4.48,8.07,6.73,1.33,1.14,2.69,2.25,4,3.41l3.87,3.57,3.87,3.58,1.94,1.8c.64.6,1.24,1.24,1.87,1.87l7.43,7.54c2.43,2.56,4.75,5.23,7.13,7.85,1.17,1.33,2.4,2.61,3.51,4l3.37,4.11c4.6,5.41,8.76,11.18,13,16.9l6,8.87,1.5,2.22,1.41,2.28,2.8,4.58a286.78,286.78,0,0,1,33.32,80,282.07,282.07,0,0,1,6.89,43.8,250.47,250.47,0,0,1-.53,45l-.55,5.65c-.22,1.88-.54,3.75-.81,5.62l-.85,5.63-.43,2.82c-.16.94-.37,1.86-.56,2.79l-2.33,11.19-2.93,11.07a273,273,0,0,1-16.42,43Z" transform="translate(-71.35 -25.45)"/><path class="cls-2" d="M1073,1012.47" transform="translate(-71.35 -25.45)"/><path class="cls-1" d="M182.07,373.48a375.94,375.94,0,0,0-25.37,50.78l-5,13.34-.63,1.67-.54,1.7-1.07,3.4-2.16,6.81-1.09,3.41-.54,1.71c-.17.57-.3,1.15-.46,1.73L143.38,465c-1.19,4.62-2.51,9.23-3.35,13.94l-1.44,7-.73,3.52c-.25,1.17-.49,2.35-.64,3.54l-2.16,14.24-.27,1.78c-.08.6-.12,1.19-.18,1.79l-.35,3.59-.72,7.19-.36,3.6L133,527l-.09,1.8-.35,7.23a347.21,347.21,0,0,0,1.82,58.1,392.47,392.47,0,0,0,11,57.61,421.45,421.45,0,0,0,19.84,55.68A408.29,408.29,0,0,0,229,808l4.94,5.67c1.66,1.88,3.26,3.83,5,5.6l10.43,10.88c1.7,1.86,3.59,3.52,5.4,5.27l5.48,5.2,5.49,5.2,5.73,4.93,5.73,4.94c1.91,1.65,3.8,3.33,5.82,4.85L295,869.86c2,1.61,4.06,3,6.12,4.49l6.2,4.39,6.21,4.4c2.11,1.41,4.27,2.74,6.4,4.11,4.29,2.71,8.54,5.51,12.87,8.16s8.74,5.21,13.22,7.62c8.87,5,18,9.52,27.21,13.92a433.09,433.09,0,0,0,57.27,21.9c9.8,3,19.75,5.56,29.77,7.88l7.54,1.64c2.51.56,5,1,7.57,1.48,5,1,10.14,1.76,15.23,2.61a424.67,424.67,0,0,0,61.77,4.7,415,415,0,0,0,123.22-18.23C597.51,969.58,509.25,975.85,425.74,957a454.15,454.15,0,0,1-61.61-18.44c-10-3.89-20-7.93-29.76-12.52-4.93-2.19-9.72-4.65-14.58-7s-9.51-5.08-14.28-7.62c-2.37-1.29-4.77-2.54-7.13-3.87l-7-4.18-7-4.18c-2.31-1.41-4.67-2.75-6.89-4.3l-13.52-9c-2.29-1.47-4.44-3.11-6.63-4.72l-6.55-4.84-6.55-4.85L238,866.28l-6.33-5.16c-2.09-1.74-4.26-3.4-6.25-5.26l-12.17-10.93c-2.07-1.79-4-3.75-5.91-5.66l-5.83-5.76A450.48,450.48,0,0,1,123.09,728a470.47,470.47,0,0,1-26.93-60.81,446.46,446.46,0,0,1-17.4-64.66,405.78,405.78,0,0,1-7.14-67.08L71.4,527l0-2.12,0-2.12.1-4.24L71.7,510l.11-4.25c0-.71,0-1.42.06-2.13l.16-2.12,1.29-17c.08-1.42.26-2.83.44-4.24l.54-4.23,1.08-8.47c.61-5.67,1.73-11.25,2.73-16.87l1.53-8.42c.13-.7.24-1.41.4-2.1l.49-2.08,1-4.17,2-8.34,1-4.17.5-2.09.6-2.06,4.82-16.48a448,448,0,0,1,26.06-63.7Z" transform="translate(-71.35 -25.45)"/><path class="cls-1" d="M267.34,420.78a297.54,297.54,0,0,0-20.75,40.61l-4.13,10.7c-.37.89-.67,1.79-1,2.71l-.88,2.73L238.84,483c-1.29,3.62-2.19,7.35-3.2,11.06l-1.5,5.58c-.27.93-.48,1.87-.66,2.81l-.6,2.83-1.2,5.66c-.38,1.89-.88,3.77-1.12,5.69l-1.82,11.47c-.87,7.7-1.86,15.43-2.12,23.22l-.33,5.85c-.09,2,0,3.9-.06,5.86l0,5.87c0,2,0,3.92.09,5.88l.53,11.77c.33,3.92.74,7.83,1.09,11.77A325.77,325.77,0,0,0,236.62,645a343,343,0,0,0,16,45.27l5,11c1.81,3.6,3.69,7.17,5.53,10.77s3.91,7.07,5.91,10.6l3,5.27c1,1.77,2.16,3.43,3.24,5.15a323.12,323.12,0,0,0,28.93,39.35l4,4.65,2,2.33c.67.77,1.4,1.49,2.1,2.24l8.46,8.94c.69.76,1.43,1.47,2.18,2.18l2.22,2.13,4.44,4.28c1.49,1.41,2.94,2.89,4.47,4.26l4.65,4.06,4.65,4.08,2.33,2c.79.67,1.61,1.29,2.41,1.94l9.71,7.72,1.22,1,1.26.91,2.52,1.81,5,3.63,5,3.64,5.22,3.39,5.22,3.4,2.62,1.7,1.31.85,1.34.79,10.8,6.27c1.81,1,3.58,2.15,5.43,3.1l5.56,2.85c3.72,1.89,7.41,3.85,11.17,5.68l11.44,5.12c1.92.84,3.81,1.75,5.75,2.54l5.86,2.26c3.91,1.49,7.81,3.06,11.75,4.49l12,3.91,3,1c1,.33,2,.67,3,.92l6.09,1.64,6.1,1.65,3.05.82,1.53.41,1.54.33c8.24,1.72,16.47,3.72,24.85,4.87l6.27,1,3.14.5,3.15.34,12.65,1.36c2.11.27,4.23.36,6.35.48l6.36.35,6.37.35c1.06.08,2.13.09,3.19.08h3.19l12.78,0,12.78-.61c2.13-.13,4.27-.16,6.4-.36l6.38-.65,6.39-.65c2.13-.23,4.27-.39,6.38-.76l12.71-2c1.06-.17,2.13-.31,3.18-.51l3.15-.66,6.31-1.33,6.32-1.33,1.58-.34,1.56-.42,3.12-.83,12.5-3.33-12.16,4.45-3,1.12-1.52.56-1.55.48-6.2,1.9-6.21,1.91-3.11,1c-1,.29-2.1.53-3.15.8l-12.63,3.16c-2.1.58-4.24.93-6.37,1.36l-6.4,1.25-6.41,1.25c-2.14.4-4.3.63-6.46,1l-13,1.81-13,1.15-3.27.29c-1.09.11-2.18.19-3.27.21l-6.56.23-6.57.23c-2.19.08-4.38.19-6.57.1l-13.16-.22-3.3-.06-3.28-.22L516,906.2c-8.8-.41-17.51-1.69-26.28-2.72l-1.64-.2-1.63-.28-3.26-.57-6.52-1.14-6.53-1.14c-1.1-.17-2.17-.43-3.24-.68l-3.23-.74-13-3c-4.28-1.12-8.53-2.4-12.8-3.6l-6.41-1.83c-2.12-.65-4.2-1.42-6.31-2.12l-12.62-4.33c-4.15-1.58-8.26-3.3-12.4-4.95l-6.2-2.5c-2.07-.84-4.05-1.85-6.08-2.77L375.77,868l-1.52-.71-1.48-.78-3-1.56-5.93-3.13-5.94-3.14-5.79-3.41-5.79-3.42-2.9-1.71-1.45-.86-1.41-.92-11.27-7.4c-.94-.62-1.89-1.22-2.81-1.87l-2.73-2-5.47-4-5.47-4c-1.81-1.34-3.53-2.8-5.31-4.19l-5.29-4.23-2.64-2.12c-.89-.7-1.77-1.41-2.6-2.17l-10.18-9c-.84-.76-1.71-1.49-2.53-2.27l-2.44-2.36L277,798.1a362.91,362.91,0,0,1-36.18-40.86c-1.38-1.82-2.85-3.58-4.16-5.45l-4-5.61c-2.61-3.76-5.36-7.44-7.75-11.35s-5-7.73-7.37-11.63l-6.86-12a392,392,0,0,1-23.14-50.35,379.72,379.72,0,0,1-15.22-53.76c-.86-4.6-1.76-9.21-2.56-13.83l-1.92-14c-.36-2.33-.55-4.67-.75-7l-.61-7c-.18-2.35-.45-4.7-.56-7.06l-.26-7.08c-.51-9.45-.23-18.93,0-28.42l.94-14.24c.11-2.38.47-4.74.73-7.11l.84-7.1.43-3.56c.13-1.19.28-2.37.5-3.55l1.21-7.07c.82-4.71,1.56-9.45,2.71-14.1l1.59-7,.8-3.51c.26-1.17.53-2.34.88-3.49l3.94-13.87a369.71,369.71,0,0,1,21.48-53.67Z" transform="translate(-71.35 -25.45)"/><path class="cls-1" d="M351.53,468.7A200.58,200.58,0,0,0,336.08,498L333,505.7l-2.67,7.93c-.22.66-.47,1.32-.67,2l-.55,2L328,521.7c-.37,1.36-.78,2.7-1.11,4.07l-.9,4.13c-5.07,22-5.85,45.31-3.25,68.56a240.82,240.82,0,0,0,7,34.67,231.69,231.69,0,0,0,12.37,33.71L344,671l.94,2.06,1,2,4.16,8.08c3,5.25,6,10.6,9.35,15.68l2.46,3.87c.81,1.3,1.74,2.51,2.61,3.77,1.78,2.49,3.49,5,5.33,7.5l5.65,7.29c.48.6.93,1.23,1.43,1.82l1.5,1.76,3,3.52,3,3.53c1,1.15,2.1,2.26,3.15,3.4,2.13,2.24,4.18,4.57,6.38,6.76l6.66,6.51c.56.54,1.1,1.1,1.68,1.62l1.74,1.55,3.49,3.11,3.49,3.12c1.17,1,2.41,2,3.61,3,2.43,2,4.84,4,7.3,5.91,5.05,3.69,10,7.57,15.31,11l3.92,2.63,2,1.31,2,1.22,8.11,4.89c2.67,1.71,5.52,3.07,8.29,4.6l4.19,2.24c1.4.74,2.78,1.53,4.23,2.17,5.75,2.65,11.42,5.56,17.36,7.84l4.42,1.81c1.48.58,2.93,1.27,4.45,1.76l9,3.18c3,1.13,6.08,2,9.14,2.89l4.61,1.36c1.54.45,3.07.95,4.63,1.29,6.23,1.48,12.46,3.14,18.8,4.19l4.75.9,2.38.45,2.39.32,9.59,1.31c1.6.25,3.21.36,4.82.5l4.83.41,4.84.41c1.62.17,3.23.14,4.85.22l9.74.32,9.75-.16c1.63,0,3.26,0,4.89-.12l4.88-.34L615,825c1.63-.13,3.27-.18,4.89-.42l9.75-1.2,2.44-.31,2.42-.43,4.85-.86,4.86-.86,1.22-.22,1.2-.28,2.4-.56,9.63-2.24L649.34,821l-2.34.84-1.17.42-1.19.36-4.75,1.44-4.76,1.44-2.39.72-2.41.6-9.69,2.38c-1.61.44-3.26.69-4.89,1l-4.91.94-4.92.94c-1.65.28-3.3.47-5,.71-3.31.45-6.62.93-10,1.35L581,835c-1.67.12-3.35.34-5,.37l-5,.17-5,.17c-1.68.06-3.37.14-5,.08l-10.11-.17-2.53,0-2.52-.17-5.06-.34c-6.77-.32-13.47-1.26-20.22-2-1.69-.17-3.36-.49-5-.77l-5-.86c-3.35-.58-6.73-1.09-10-1.9l-10-2.23c-1.68-.34-3.3-.87-4.95-1.3l-4.94-1.37c-6.64-1.69-13.06-4-19.59-6.18-1.64-.51-3.22-1.18-4.82-1.79l-4.8-1.87c-3.18-1.28-6.45-2.42-9.55-3.9l-9.42-4.25-2.36-1.07-2.3-1.17L423,802c-6.22-3-12.14-6.59-18.19-10-3-1.81-5.87-3.69-8.81-5.54-1.46-.94-3-1.83-4.39-2.82l-4.28-3-4.29-3-2.14-1.5c-.71-.51-1.39-1.05-2.08-1.58l-8.31-6.39c-2.75-2.16-5.37-4.48-8.07-6.73-1.33-1.14-2.69-2.25-4-3.41l-3.87-3.57-3.87-3.58-1.94-1.8c-.64-.6-1.24-1.24-1.87-1.87l-7.43-7.54c-2.43-2.56-4.75-5.23-7.13-7.85-1.17-1.33-2.4-2.61-3.51-4l-3.37-4.11c-4.6-5.41-8.76-11.18-13-16.9l-6-8.87-1.5-2.22-1.41-2.28-2.8-4.58a286.78,286.78,0,0,1-33.32-80,282.07,282.07,0,0,1-6.89-43.8,250.48,250.48,0,0,1,.53-45l.55-5.65c.22-1.88.54-3.75.81-5.62l.85-5.63.43-2.82c.16-.94.37-1.86.56-2.79l2.33-11.19,2.93-11.07a273,273,0,0,1,16.42-43Z" transform="translate(-71.35 -25.45)"/></svg>